<?xml version="1.0" encoding="utf-8"?>
<!-- Generator: Adobe Illustrator 25.4.0, SVG Export Plug-In . SVG Version: 6.00 Build 0)  -->
<svg version="1.1" id="Layer_1" xmlns="http://www.w3.org/2000/svg" xmlns:xlink="http://www.w3.org/1999/xlink" x="0px" y="0px"
	 viewBox="0 0 256 256" style="enable-background:new 0 0 256 256;" xml:space="preserve">
<style type="text/css">
	.st0{fill:#FFFFFF;}
</style>
<g transform="translate(1.4065934065934016 1.4065934065934016) scale(2.81 2.81)">
	<path class="st0" d="M58.9,41.5c-1.5,0-2.7,0.4-3.5,1.3c-0.8,0.8-1.3,2-1.6,3.5h10l0,0c-0.1-1.5-0.6-2.7-1.6-3.5
		C61.5,41.9,60.3,41.5,58.9,41.5z"/>
	<path class="st0" d="M37,40.9c0.8-0.5,1.3-1.4,1.3-2.7c0-1.4-0.6-2.4-1.7-2.9c-1-0.3-2.2-0.5-3.7-0.5h-5.8v6.9h6.6
		C35.1,41.7,36.2,41.5,37,40.9z"/>
	<path class="st0" d="M37,47.4c-0.7-0.3-1.8-0.5-3.1-0.5h-6.7v8.3h6.6c1.4,0,2.4-0.2,3.2-0.5c1.4-0.7,2-2,2-3.9
		C38.9,49.1,38.3,48,37,47.4z"/>
	<path class="st0" d="M45,0C20.1,0,0,20.1,0,45s20.1,45,45,45s45-20.1,45-45S69.9,0,45,0z M52.6,30.7h12.5v3.1h0H52.6V30.7z
		 M44.1,56.1c-0.6,1-1.3,1.8-2.2,2.4c-1,0.8-2.2,1.3-3.5,1.6c-1.4,0.3-2.8,0.4-4.4,0.4H20V29.4h15c3.8,0.1,6.5,1.2,8.1,3.3
		c1,1.3,1.4,2.9,1.4,4.8c0,1.9-0.5,3.4-1.4,4.6c-0.5,0.6-1.3,1.2-2.4,1.8c1.6,0.6,2.8,1.5,3.6,2.7c0.8,1.3,1.2,2.8,1.2,4.6
		C45.5,53,45,54.7,44.1,56.1z M70,50.1H53.8c0.1,2.2,0.9,3.8,2.3,4.7c0.9,0.6,2,0.8,3.2,0.8c1.3,0,2.4-0.3,3.2-1
		c0.5-0.4,0.9-0.9,1.2-1.5h5.9c-0.2,1.3-0.9,2.7-2.2,4c-2,2.2-4.8,3.3-8.4,3.3c-3,0-5.6-0.9-7.8-2.7c-2.3-1.8-3.4-4.8-3.4-8.9
		c0-3.9,1-6.8,3.1-8.9c2.1-2.1,4.7-3.1,8-3.1c1.9,0,3.7,0.3,5.2,1c1.6,0.7,2.8,1.8,3.8,3.3c0.9,1.3,1.5,2.9,1.8,4.6
		C70,46.7,70,48.2,70,50.1z"/>
</g>
<path d="M145.6,163.4c6.4,5.1,13.7,7.7,22.1,7.7c10.1,0,17.9-3.1,23.6-9.1c3.6-3.8,5.6-7.6,6.1-11.3h-16.7c-1,1.8-2.1,3.3-3.4,4.3
	c-2.3,1.9-5.4,2.9-9.1,2.9c-3.5,0-6.5-0.8-9-2.4c-4.1-2.5-6.3-6.9-6.5-13.2h45.6c0.1-5.4-0.1-9.6-0.5-12.4c-0.8-4.9-2.4-9.2-5-13
	c-2.8-4.2-6.4-7.3-10.8-9.3c-4.4-2-9.3-2.9-14.7-2.9c-9.2,0-16.6,2.9-22.4,8.7c-5.7,5.8-8.6,14.1-8.6,25
	C136,149.9,139.2,158.3,145.6,163.4z M157.3,121.8c2.3-2.4,5.6-3.6,9.8-3.6c3.9,0,7.1,1.1,9.7,3.4c2.6,2.3,4.1,5.5,4.4,9.9h-28.2
	C153.5,127.4,154.9,124.2,157.3,121.8z"/>
<polygon points="184.5,96.7 184.5,87.9 149.3,87.9 149.3,96.7 184.5,96.7 "/>
<path d="M109.3,170.5c3.8-0.8,7.1-2.3,9.9-4.4c2.5-1.9,4.5-4.1,6.2-6.9c2.6-4.1,3.9-8.8,3.9-13.9c0-5-1.1-9.3-3.4-12.8
	c-2.3-3.5-5.6-6.1-10.1-7.7c2.9-1.5,5.2-3.2,6.7-5c2.7-3.2,4-7.5,4-12.9c0-5.2-1.3-9.6-4-13.4c-4.5-6.1-12-9.1-22.6-9.3H57.6v87.4
	H97C101.4,171.7,105.5,171.3,109.3,170.5z M77.8,99.5H94c4.2,0,7.6,0.5,10.3,1.4c3.1,1.3,4.7,4,4.7,8.1c0,3.7-1.2,6.2-3.5,7.7
	c-2.4,1.4-5.4,2.2-9.2,2.2H77.8V99.5z M77.8,156.5v-23.3h18.8c3.7,0,6.7,0.5,8.7,1.5c3.7,1.7,5.6,4.8,5.6,9.4c0,5.4-1.9,9-5.7,10.9
	c-2.1,1-5.1,1.5-8.9,1.5H77.8z"/>
</svg>
