<svg width="16" height="24" viewBox="0 0 16 24" fill="none" xmlns="http://www.w3.org/2000/svg">
<path d="M3.85667 23.1401C5.98555 23.1401 7.71334 21.4123 7.71334 19.2834V15.4268H3.85667C1.72779 15.4268 0 17.1545 0 19.2834C0 21.4123 1.72779 23.1401 3.85667 23.1401Z" fill="#0ACF83"/>
<path d="M0 11.57C0 9.44117 1.72779 7.71338 3.85667 7.71338H7.71334V15.4267H3.85667C1.72779 15.4267 0 13.6989 0 11.57Z" fill="#A259FF"/>
<path d="M3.05176e-05 3.85667C3.05176e-05 1.72779 1.72782 0 3.8567 0H7.71337V7.71334H3.8567C1.72782 7.71334 3.05176e-05 5.98555 3.05176e-05 3.85667Z" fill="#F24E1E"/>
<path d="M7.71335 0.00012207H11.57C13.6989 0.00012207 15.4267 1.72791 15.4267 3.85679C15.4267 5.98567 13.6989 7.71346 11.57 7.71346H7.71335V0.00012207Z" fill="#FF7262"/>
<path d="M15.4267 11.57C15.4267 13.6989 13.6989 15.4267 11.57 15.4267C9.44114 15.4267 7.71335 13.6989 7.71335 11.57C7.71335 9.44117 9.44114 7.71338 11.57 7.71338C13.6989 7.71338 15.4267 9.44117 15.4267 11.57Z" fill="#1ABCFE"/>
</svg>
