<?xml version="1.0" encoding="utf-8"?>
<!-- Generator: Adobe Illustrator 25.4.0, SVG Export Plug-In . SVG Version: 6.00 Build 0)  -->
<svg version="1.1" id="Group_1282" xmlns="http://www.w3.org/2000/svg" xmlns:xlink="http://www.w3.org/1999/xlink" x="0px" y="0px"
	 viewBox="0 0 64.8 64.8" style="enable-background:new 0 0 64.8 64.8;" xml:space="preserve">
<style type="text/css">
	.st0{fill:#0A66C2;}
	.st1{fill:#FFFFFF;}
</style>
<path class="st0" d="M32.5,0h-0.1C14.5,0,0,14.5,0,32.3v0.1c0,17.9,14.5,32.3,32.3,32.3h0c17.9,0,32.4-14.5,32.4-32.4v0
	C64.8,14.5,50.3,0,32.5,0z"/>
<path class="st1" d="M19.3,23.4c2.3,0,4.2-1.9,4.2-4.2c0-2.6-2.4-4.6-5.1-4.1c-1.6,0.3-2.9,1.6-3.2,3.2C14.6,21,16.7,23.4,19.3,23.4
	z"/>
<path class="st1" d="M34.5,38.2c0-3,0.6-5.9,4.3-5.9c3.7,0,3.7,3.4,3.7,6.1v11.2h7.2l-0.1-12.7c0-6.2-1.3-11-8.6-11
	c-2.8-0.1-5.4,1.3-6.8,3.7h-0.1v-3.1h-6.9v23.1h7.2V38.2z"/>
<rect x="15.7" y="26.5" class="st1" width="7.2" height="23.1"/>
</svg>
