<svg width="24" height="23" viewBox="0 0 24 23" fill="none" xmlns="http://www.w3.org/2000/svg">
<path d="M4.09771 0H19.0423C21.3081 0 23.14 1.83192 23.14 4.09771V18.4638C23.14 20.7296 21.3081 22.5615 19.0423 22.5615H4.09771C1.83192 22.5615 0 20.7296 0 18.4638V4.09771C0 1.83192 1.83192 0 4.09771 0Z" fill="#470137"/>
<path d="M12.1678 5.92954L9.27527 10.7022L12.3606 15.764C12.3799 15.8026 12.3895 15.8412 12.3799 15.8797C12.3702 15.9183 12.3317 15.8894 12.2738 15.899H10.0659C9.91162 15.899 9.80556 15.8894 9.73807 15.793C9.5356 15.388 9.32348 14.9927 9.121 14.5878C8.91853 14.1924 8.69677 13.7875 8.46537 13.3729C8.23397 12.9583 8.00257 12.5437 7.77117 12.1195H7.75189C7.54941 12.5341 7.32765 12.9487 7.1059 13.3633C6.88414 13.7779 6.66238 14.1924 6.45026 14.5974C6.2285 15.0023 6.00675 15.4169 5.78499 15.8122C5.74642 15.9087 5.66929 15.9183 5.56323 15.9183H3.44206C3.4035 15.9183 3.37457 15.9376 3.37457 15.8894C3.36493 15.8508 3.37457 15.8122 3.39385 15.7833L6.39241 10.8661L3.47099 5.9199C3.44206 5.88133 3.43242 5.84276 3.4517 5.82348C3.47099 5.79455 3.50955 5.78491 3.54812 5.78491H5.73678C5.78499 5.78491 5.8332 5.79455 5.87176 5.8042C5.91033 5.82348 5.93925 5.8524 5.96818 5.89097C6.15137 6.30556 6.36349 6.72015 6.58525 7.13475C6.81665 7.54934 7.0384 7.95429 7.27945 8.35924C7.51085 8.76419 7.72296 9.16914 7.92544 9.58373H7.94472C8.1472 9.1595 8.35931 8.7449 8.57143 8.33995C8.78355 7.935 9.0053 7.53005 9.22706 7.1251C9.44882 6.72015 9.66094 6.30556 9.87305 5.91025C9.8827 5.87169 9.90198 5.83312 9.9309 5.81384C9.96947 5.79455 10.008 5.78491 10.0562 5.79455H12.0906C12.1388 5.78491 12.1871 5.81384 12.1967 5.86205C12.2063 5.87169 12.1871 5.91025 12.1678 5.92954Z" fill="#FF61F6"/>
<path d="M16.6222 16.1015C15.9088 16.1111 15.1953 15.9665 14.5493 15.6676C13.9419 15.388 13.4405 14.9252 13.0934 14.3563C12.7367 13.7682 12.5631 13.0354 12.5631 12.158C12.5535 11.4446 12.7367 10.7407 13.0934 10.1237C13.4598 9.49694 13.9901 8.97629 14.6264 8.62919C15.3013 8.25317 16.1112 8.06998 17.0658 8.06998C17.114 8.06998 17.1815 8.06998 17.2682 8.07962C17.355 8.08926 17.4514 8.08926 17.5671 8.0989V5.05214C17.5671 4.98465 17.5961 4.94608 17.6635 4.94608H19.6208C19.669 4.93644 19.7076 4.975 19.7172 5.01357C19.7172 5.02321 19.7172 5.03285 19.7172 5.03285V14.2117C19.7172 14.3853 19.7269 14.5781 19.7365 14.7902C19.7558 14.9927 19.7654 15.1855 19.7751 15.3494C19.7751 15.4169 19.7461 15.4748 19.6787 15.5037C19.1773 15.7158 18.647 15.8701 18.1071 15.9665C17.6153 16.0533 17.1236 16.1015 16.6222 16.1015ZM17.5671 14.1732V9.93082C17.4804 9.91154 17.3936 9.89225 17.3068 9.88261C17.2007 9.87297 17.0947 9.86333 16.9886 9.86333C16.6126 9.86333 16.2366 9.94046 15.8991 10.114C15.5713 10.2779 15.2917 10.519 15.0796 10.8275C14.8675 11.136 14.7614 11.5506 14.7614 12.052C14.7518 12.3894 14.8096 12.7269 14.9253 13.0451C15.0217 13.3054 15.1664 13.5368 15.3592 13.7296C15.5424 13.9032 15.7641 14.0382 16.0148 14.1153C16.2751 14.2021 16.5451 14.2406 16.8151 14.2406C16.9597 14.2406 17.0947 14.231 17.22 14.2214C17.3454 14.231 17.4514 14.2117 17.5671 14.1732Z" fill="#FF61F6"/>
</svg>
