<?xml version="1.0" encoding="utf-8"?>
<!-- Generator: Adobe Illustrator 25.4.0, SVG Export Plug-In . SVG Version: 6.00 Build 0)  -->
<svg version="1.1" id="Слой_1" xmlns="http://www.w3.org/2000/svg" xmlns:xlink="http://www.w3.org/1999/xlink" x="0px" y="0px"
	 viewBox="0 0 1000 1000" style="enable-background:new 0 0 1000 1000;" xml:space="preserve">
<style type="text/css">
	.st0{fill:#0056FF;}
	.st1{fill:#FFFFFF;}
</style>
<g>
	<path class="st0" d="M500,0.5L500,0.5c276,0,499.7,223.7,499.7,499.7v0c0,276-223.7,499.7-499.7,499.7h0
		C224,1000,0.3,776.3,0.3,500.3v0C0.3,224.3,224,0.5,500,0.5z"/>
	<g>
		<g transform="translate(-55 -103)">
			<path class="st1" d="M417.5,387.9c17.6-0.3,35.3,1.5,52.5,5.4c14.5,3.2,28.2,9,40.5,17.3c11.4,8.2,20.3,19.3,26,32.2
				c6.6,15.8,9.7,32.7,9.3,49.8c0.7,18.7-4,37.3-13.8,53.3c-10.2,15.1-24.4,27.2-40.9,35c22.5,6.1,42,19.9,55.2,39.1
				c12.6,20.3,19,43.9,18.2,67.8c0.4,19.1-3.5,38-11.5,55.3c-7.4,15.1-18.2,28.3-31.6,38.4c-13.8,10.1-29.3,17.5-45.8,22
				c-17.1,4.7-34.7,7.1-52.5,7.1H228.5V387.9H417.5z M406.3,558.9c13.9,0.6,27.5-3.6,38.7-11.8c10.9-9.7,16.5-23.9,15.2-38.4
				c0.4-8.4-1.3-16.7-4.8-24.2c-3-6-7.7-11.1-13.5-14.5c-5.9-3.8-12.4-6.3-19.3-7.5c-7.5-1.4-15.1-2.1-22.7-2h-83.2v98.8h89.6V558.9
				z M411.2,738.9c8.4,0.1,16.7-0.8,24.9-2.7c7.5-1.6,14.5-4.7,20.8-9c6.2-4.3,11.2-10.1,14.5-16.9c3.9-8.6,5.7-18,5.2-27.4
				c1.7-17.4-4.8-34.6-17.5-46.6c-13.3-9.8-29.6-14.7-46.1-13.7h-96.3v116.4L411.2,738.9z"/>
			<path class="st1" d="M690.2,737.3c14,13,32.7,19.6,51.7,18.4c14.9,0.4,29.6-4.2,41.7-12.9c9.8-6.4,17.3-15.9,21.2-26.9h70.3
				c-7.5,31.5-25.8,59.4-51.7,78.8c-24.9,16.5-54.3,24.9-84.1,23.9c-21.3,0.3-42.4-3.7-62.1-11.8c-17.8-7.4-33.8-18.7-46.9-32.9
				c-13-14.9-23-32.3-29.4-51c-7.2-20.9-10.7-43-10.4-65.1c-0.1-21.8,3.5-43.4,10.8-63.9c20-59.2,75.9-98.8,138.4-98
				c22.5-0.5,44.7,4.8,64.6,15.3c18,9.9,33.5,23.7,45.4,40.4c12.2,17.5,20.9,37.2,25.7,58c5.3,22.3,7.1,45.3,5.6,68.2H671.5
				C669.8,699.3,676.5,720.6,690.2,737.3z M782.1,576.5c-11.9-11.9-28.3-18-45-16.9c-11-0.4-21.9,2-31.6,7.1
				c-7.7,4.3-14.6,10-20.1,16.9c-4.9,6.4-8.6,13.8-10.8,21.5c-2,6.5-3.2,13.2-3.7,20h129.7C799.5,607.4,793,590.5,782.1,576.5
				L782.1,576.5z"/>
			<rect x="654.1" y="416.1" class="st1" width="162.6" height="41.6"/>
		</g>
	</g>
</g>
</svg>
