<svg width="24" height="23" viewBox="0 0 24 23" fill="none" xmlns="http://www.w3.org/2000/svg">
<path d="M12.0257 0C5.37372 0 0 5.26622 0 11.7851C0 17.0002 3.44336 21.4228 8.2171 22.9822C8.81708 23.0844 9.05186 22.7265 9.05186 22.4198C9.05186 22.1386 9.02577 21.2183 9.02577 20.2213C5.99979 20.7581 5.21721 19.5055 4.98243 18.8408C4.852 18.5085 4.25203 17.4603 3.75639 17.1791C3.33901 16.949 2.73903 16.4122 3.7303 16.3866C4.6694 16.3611 5.34764 17.2302 5.58241 17.5881C6.67803 19.3776 8.39971 18.8664 9.07794 18.5596C9.18229 17.7927 9.49532 17.2814 9.83444 16.9746C7.14758 16.6678 4.35637 15.6708 4.35637 11.146C4.35637 9.86777 4.82592 8.79407 5.58241 7.97602C5.45198 7.66925 5.03461 6.46773 5.71284 4.85719C5.71284 4.85719 6.7302 4.55042 9.02577 6.05871C9.99095 5.80306 11.0083 5.64968 12.0257 5.64968C13.043 5.64968 14.0604 5.7775 15.0256 6.05871C17.3211 4.52486 18.3385 4.85719 18.3385 4.85719C18.9906 6.46773 18.5733 7.69481 18.4689 7.97602C19.2254 8.79407 19.695 9.8422 19.695 11.146C19.695 15.6708 16.8777 16.6678 14.1908 16.9746C14.6343 17.3325 14.9995 18.0483 14.9995 19.1476C14.9995 20.7325 14.9734 21.9852 14.9734 22.3942C14.9734 22.701 15.2082 23.0844 15.8081 22.9566C20.5558 21.3972 23.9992 16.9746 23.9992 11.7595C24.0774 5.26622 18.6776 0 12.0257 0Z" fill="white"/>
</svg>
