<?xml version="1.0" encoding="utf-8"?>
<!-- Generator: Adobe Illustrator 25.4.0, SVG Export Plug-In . SVG Version: 6.00 Build 0)  -->
<svg version="1.1" id="Layer_1" xmlns="http://www.w3.org/2000/svg" xmlns:xlink="http://www.w3.org/1999/xlink" x="0px" y="0px"
	 viewBox="0 0 630 630" style="enable-background:new 0 0 630 630;" xml:space="preserve">
<style type="text/css">
	.st0{fill-rule:evenodd;clip-rule:evenodd;fill:#FFFFFF;filter:url(#Adobe_OpacityMaskFilter);}
	.st1{mask:url(#mask0_2178_4892_00000151544632133132329920000017377433078554879648_);}
	.st2{fill:#0065A9;}
	.st3{fill:#007ACC;}
	.st4{fill:#1F9CF0;}
	.st5{opacity:0.25;}
	.st6{fill-rule:evenodd;clip-rule:evenodd;fill:url(#SVGID_1_);}
</style>
<defs>
	<filter id="Adobe_OpacityMaskFilter" filterUnits="userSpaceOnUse" x="0" y="0" width="630" height="626.4">
		<feColorMatrix  type="matrix" values="1 0 0 0 0  0 1 0 0 0  0 0 1 0 0  0 0 0 1 0"/>
	</filter>
</defs>
<mask maskUnits="userSpaceOnUse" x="0" y="0" width="630" height="626.4" id="mask0_2178_4892_00000151544632133132329920000017377433078554879648_">
	<path class="st0" d="M446.9,623.7c9.9,3.9,21.2,3.6,31.2-1.2l129.6-62.4c13.6-6.6,22.3-20.3,22.3-35.5V101.7
		c0-15.1-8.7-28.9-22.3-35.5L478.1,3.9c-13.1-6.3-28.5-4.8-40,3.6c-1.6,1.2-3.2,2.5-4.7,4L185.2,237.9L77.1,155.8
		c-10.1-7.6-24.1-7-33.5,1.5L9,188.9c-11.4,10.4-11.4,28.4,0,38.8l93.7,85.5L8.9,398.7c-11.4,10.4-11.4,28.4,0,38.8L43.6,469
		c9.3,8.5,23.4,9.1,33.5,1.5l108.1-82l248.2,226.4C437.3,618.8,441.9,621.8,446.9,623.7z M472.7,170.3L284.4,313.2l188.3,142.9
		V170.3z"/>
</mask>
<g class="st1">
	<path class="st2" d="M607.7,66.4L478,3.9c-15-7.2-33-4.2-44.7,7.6L8.6,398.7c-11.4,10.4-11.4,28.4,0,38.8L43.3,469
		c9.4,8.5,23.4,9.1,33.5,1.5l511.4-388c17.2-13,41.8-0.8,41.8,20.8v-1.5C630,86.7,621.3,72.9,607.7,66.4z"/>
	<g>
		<path class="st3" d="M607.7,560L478,622.5c-15,7.2-33,4.2-44.7-7.6L8.6,227.7c-11.4-10.4-11.4-28.4,0-38.8l34.7-31.5
			c9.4-8.5,23.4-9.1,33.5-1.5l511.4,388c17.2,13,41.8,0.8,41.8-20.8v1.5C630,539.7,621.3,553.5,607.7,560z"/>
	</g>
	<g>
		<path class="st4" d="M478,622.5c-15,7.2-33,4.2-44.8-7.6c14.5,14.5,39.3,4.2,39.3-16.3V27.8c0-20.5-24.8-30.8-39.3-16.3
			C445-0.3,463-3.3,478,3.9l129.7,62.4c13.6,6.6,22.3,20.3,22.3,35.5v422.9c0,15.1-8.7,28.9-22.3,35.5L478,622.5z"/>
	</g>
	<g class="st5">
		
			<linearGradient id="SVGID_1_" gradientUnits="userSpaceOnUse" x1="314.8082" y1="631.9967" x2="314.8082" y2="5.6259" gradientTransform="matrix(1 0 0 -1 0 632)">
			<stop  offset="0" style="stop-color:#FFFFFF"/>
			<stop  offset="1" style="stop-color:#FFFFFF;stop-opacity:0"/>
		</linearGradient>
		<path class="st6" d="M446.5,623.7c9.9,3.9,21.2,3.6,31.2-1.2l129.6-62.4c13.6-6.6,22.3-20.3,22.3-35.5V101.7
			c0-15.1-8.7-28.9-22.3-35.5L477.7,3.9c-13.1-6.3-28.5-4.8-40,3.6c-1.6,1.2-3.2,2.5-4.7,4L184.8,237.9L76.7,155.8
			c-10.1-7.6-24.1-7-33.5,1.5L8.6,188.9c-11.4,10.4-11.4,28.4,0,38.8l93.7,85.5L8.6,398.7c-11.4,10.4-11.4,28.4,0,38.8L43.3,469
			c9.3,8.5,23.4,9.1,33.5,1.5l108.1-82.1L433,614.9C436.9,618.8,441.5,621.8,446.5,623.7z M472.3,170.3L284,313.2l188.3,142.9V170.3
			z"/>
	</g>
</g>
</svg>
