<svg width="104" height="26" viewBox="0 0 104 26" fill="none" xmlns="http://www.w3.org/2000/svg">
<g clip-path="url(#clip0_2103_5)">
<path d="M19.0789 4.16597C19.1288 3.94289 19.1162 3.71032 19.0426 3.49395C18.969 3.27758 18.8372 3.08582 18.6617 2.93983C18.1225 2.39558 17.5293 1.90794 16.8913 1.48447C16.2016 1.02559 15.4552 0.658666 14.6711 0.392949C13.7951 0.107174 12.8786 -0.0341326 11.9574 -0.0254644C10.8362 -0.0390461 9.71946 0.117977 8.6452 0.44025C7.69613 0.738832 6.81221 1.21541 6.0404 1.84467C5.31147 2.43009 4.72515 3.17441 4.32598 4.02109C3.92681 4.86777 3.72528 5.79455 3.7367 6.73104C3.72705 7.49045 3.836 8.24669 4.05958 8.9723C4.26185 9.61285 4.55772 10.2198 4.93753 10.7733C5.30351 11.3157 5.7417 11.8053 6.23993 12.2287C6.73226 12.645 7.25357 13.0256 7.79991 13.3675C8.35624 13.7138 8.93022 14.0308 9.51952 14.3171C10.06 14.5842 10.5856 14.8806 11.094 15.2049C11.4777 15.4507 11.8308 15.7414 12.1461 16.0708C12.3995 16.3471 12.6044 16.6645 12.7519 17.0095C12.8937 17.362 12.964 17.7392 12.9587 18.1192C12.9712 18.7097 12.8471 19.295 12.596 19.8293C12.3762 20.2901 12.0428 20.6871 11.6273 20.9827C11.1501 21.32 10.6152 21.5666 10.0492 21.7103C9.34927 21.885 8.62997 21.9694 7.90875 21.9614C7.21152 21.9708 6.5176 21.8638 5.85538 21.6448C5.26603 21.4481 4.70682 21.1701 4.19381 20.8189C3.73011 20.4845 3.30432 20.1002 2.92406 19.6728C2.80458 19.5257 2.65497 19.406 2.48534 19.3218C2.31572 19.2377 2.13005 19.1912 1.94091 19.1853C1.83539 19.1852 1.73038 19.1999 1.62891 19.2289C1.28309 19.3437 0.966222 19.5324 0.700181 19.782C0.450937 19.9989 0.252702 20.2686 0.11972 20.5715C0.0292336 20.783 0.000295229 21.0158 0.0362478 21.2431C0.0722003 21.4704 0.171577 21.6829 0.322883 21.8559C0.724493 22.3951 1.18306 22.8891 1.69059 23.3294C2.22416 23.7947 2.80974 24.1964 3.43559 24.5265C4.10034 24.875 4.80432 25.1426 5.5325 25.3233C6.31721 25.5161 7.1226 25.6115 7.93052 25.6071C9.11875 25.6185 10.3018 25.448 11.4387 25.1013C12.4682 24.7855 13.4277 24.2741 14.2648 23.595C15.0837 22.9362 15.7409 22.0975 16.1856 21.1437C16.6303 20.1899 16.8506 19.1465 16.8297 18.0938C16.8388 17.281 16.7049 16.4731 16.4342 15.707C16.1641 14.9824 15.7632 14.3139 15.2515 13.735C14.7274 13.1477 14.1355 12.625 13.4884 12.1777C12.7894 11.694 12.0517 11.2693 11.2827 10.9079C10.6647 10.634 10.0681 10.3142 9.49775 9.95103C9.08545 9.69204 8.70964 9.37877 8.38037 9.0196C8.12813 8.73738 7.93779 8.40518 7.82168 8.04451C7.69143 7.61669 7.629 7.17101 7.63666 6.72377C7.62421 6.26949 7.72128 5.8189 7.91963 5.4103C8.10833 5.04157 8.385 4.72536 8.72502 4.48979C9.13912 4.20822 9.6016 4.00592 10.0891 3.89309C10.6985 3.74593 11.3234 3.67384 11.9502 3.67842C12.563 3.66601 13.1742 3.74448 13.7641 3.91128C14.2429 4.05265 14.7014 4.25566 15.1282 4.51526C15.5565 4.77994 15.9651 5.07542 16.3508 5.39938L16.3726 5.41758L16.398 5.43577C16.6395 5.6082 16.9286 5.70103 17.2251 5.70138C17.3288 5.70154 17.4321 5.69056 17.5335 5.66863C17.8943 5.58878 18.2237 5.404 18.4803 5.13742C18.774 4.8824 18.9829 4.54343 19.0789 4.16597Z" fill="black"/>
<path d="M98.1156 20.7389C97.8666 20.5621 97.5715 20.4622 97.2667 20.4515C97.1799 20.4504 97.0934 20.4601 97.0091 20.4806C96.6777 20.5671 96.3866 20.7664 96.1856 21.0445C96.0292 21.2632 95.8583 21.471 95.674 21.6667C95.6076 21.7372 95.5374 21.804 95.4636 21.8668C95.4636 21.834 95.4818 21.7977 95.489 21.7576L96.9402 16.009C97.2456 15.0148 97.3395 13.9674 97.2159 12.9345C97.1089 12.0949 96.6858 11.3282 96.0332 10.7915C95.327 10.2802 94.469 10.0237 93.5989 10.0638C92.9643 10.0669 92.3348 10.1789 91.7378 10.3949C91.1 10.6266 90.4997 10.9515 89.9565 11.3591C89.4204 11.7595 88.9247 12.2116 88.4764 12.7089C88.4537 12.3239 88.3679 11.9453 88.2224 11.5883C88.0199 11.1235 87.6689 10.7395 87.2247 10.4968C86.6951 10.2155 86.1002 10.0811 85.5015 10.1075H85.458H85.3963C84.915 10.1085 84.4371 10.1884 83.9814 10.344C83.4567 10.5296 82.9663 10.8014 82.5303 11.1481C81.9649 11.5987 81.4514 12.1113 80.9993 12.6762C80.3657 13.4615 79.7793 14.284 79.2434 15.1394C78.5614 16.2309 77.9048 17.2424 77.2917 18.1229C76.7576 18.9037 76.1748 19.6499 75.5466 20.3569C75.0956 20.876 74.5741 21.3292 73.9976 21.7031C73.5957 21.9619 73.1292 22.1019 72.6516 22.1069C72.3651 22.1152 72.084 22.0268 71.8535 21.8559C71.8063 21.8231 71.7664 21.7831 71.7229 21.7467C71.9623 21.5612 72.1945 21.3829 72.4086 21.1864C73.2523 20.5025 74.0341 19.7452 74.7449 18.9233C75.4085 18.1647 75.9775 17.3278 76.4391 16.431C76.8699 15.6152 77.1024 14.7089 77.1175 13.7859C77.1298 13.116 76.9659 12.4546 76.6423 11.8685C76.3249 11.3068 75.8558 10.8465 75.2891 10.5404C74.7098 10.2379 74.0666 10.0794 73.4135 10.0784H73.3336H73.2756C72.2359 10.0634 71.2136 10.3475 70.3298 10.897C69.503 11.4315 68.8063 12.1452 68.2909 12.9855C67.775 13.8178 67.3861 14.7228 67.1373 15.6706C66.8971 16.5776 66.7752 17.5119 66.7745 18.4503C66.7738 19.1432 66.8504 19.8339 67.003 20.5097C67.0248 20.6079 67.0538 20.7061 67.0792 20.8044C66.8108 20.9499 66.535 21.0918 66.2557 21.2192C65.6336 21.5092 64.9879 21.7453 64.3257 21.925C63.7257 22.0868 63.1076 22.1712 62.4863 22.1761C61.958 22.1852 61.4326 22.0951 60.9372 21.9104C60.7262 21.8274 60.5244 21.7225 60.335 21.5975C60.5055 21.4593 60.6724 21.321 60.8284 21.1864C61.673 20.5035 62.4549 19.7461 63.1648 18.9233C63.8296 18.1656 64.3986 17.3285 64.859 16.431C65.2898 15.6152 65.5222 14.7089 65.5374 13.7859C65.5497 13.116 65.3858 12.4546 65.0621 11.8685C64.7457 11.3061 64.2764 10.8455 63.7089 10.5404C63.0985 10.2195 62.4172 10.0581 61.7281 10.0711C60.8881 10.0598 60.0566 10.2415 59.2974 10.6023C58.59 10.9479 57.9576 11.4301 57.4364 12.0213C56.9227 12.6082 56.4941 13.2647 56.163 13.9715C55.8266 14.6839 55.5758 15.4338 55.4156 16.2054C55.262 16.9439 55.183 17.696 55.1798 18.4503C55.1775 19.1643 55.2579 19.8761 55.4193 20.5715C55.4193 20.6297 55.4519 20.6843 55.4701 20.7425C54.89 21.0876 54.2834 21.3857 53.6561 21.6339C52.9149 21.9461 52.1232 22.1199 51.3198 22.1469C51.28 22.1514 51.2398 22.1514 51.2001 22.1469C51.2045 21.6907 51.2792 21.2378 51.4214 20.8044L52.5932 16.0272C52.9013 15.0335 52.9965 13.9858 52.8725 12.9527C52.7656 12.1131 52.3424 11.3464 51.6898 10.8097C50.9836 10.2984 50.1256 10.0419 49.2555 10.082C48.6209 10.0851 47.9914 10.1971 47.3944 10.4131C46.7566 10.6448 46.1564 10.9697 45.6131 11.3773C45.077 11.7777 44.5813 12.2298 44.133 12.7271C44.1099 12.3422 44.0241 11.9636 43.879 11.6065C43.6765 11.1417 43.3255 10.7577 42.8814 10.515C42.3517 10.2337 41.7568 10.0993 41.1581 10.1257C40.6171 10.1282 40.0797 10.2154 39.5655 10.384C38.9244 10.6164 38.3432 10.9893 37.864 11.4755C37.2114 12.135 36.6479 12.8775 36.188 13.684C35.4945 14.8775 34.8812 16.1161 34.3523 17.3916C34.0314 18.169 33.6681 18.9282 33.2639 19.6656C32.9738 20.2008 32.6414 20.7118 32.2699 21.1937C32.0389 21.5016 31.7581 21.7685 31.4391 21.9832C31.2694 22.1009 31.0716 22.1712 30.8659 22.187H30.8586C30.8225 22.1914 30.7859 22.1914 30.7498 22.187C30.747 21.7334 30.8181 21.2823 30.9602 20.8517L33.1877 12.0322C33.2762 11.7921 33.2959 11.5319 33.2446 11.2812C33.1933 11.0304 33.0731 10.799 32.8975 10.6132C32.5927 10.3076 32.1139 10.1657 31.3919 10.1657C30.9989 10.1464 30.6082 10.2371 30.2636 10.4277C30.1534 10.4942 30.0532 10.5763 29.9662 10.6714C29.7848 10.5962 29.5997 10.5271 29.4111 10.464C28.644 10.2043 27.8408 10.068 27.0312 10.0602C25.9551 10.0498 24.8895 10.2732 23.9076 10.7151C22.9875 11.137 22.1545 11.7281 21.4516 12.4579C20.772 13.1727 20.189 13.9739 19.7174 14.841C18.8096 16.5261 18.3275 18.4088 18.3135 20.3241C18.295 21.2451 18.4603 22.1605 18.7996 23.0165C19.0947 23.7674 19.5983 24.4177 20.2507 24.8903C20.9059 25.3396 21.6847 25.5723 22.4782 25.5561C23.5765 25.5165 24.6352 25.135 25.5075 24.4646C26.0831 24.0515 26.6111 23.5756 27.082 23.0456C27.1234 23.3035 27.1927 23.556 27.2888 23.7988C27.5014 24.3378 27.8835 24.7926 28.3772 25.094C28.971 25.4233 29.6438 25.5819 30.3217 25.5525H30.3761C30.9418 25.5501 31.5036 25.4592 32.0413 25.2832C32.7156 25.0511 33.3337 24.6792 33.8552 24.1917C34.56 23.5184 35.1702 22.7522 35.6692 21.9141C36.419 20.6782 37.0681 19.3835 37.6101 18.0428C37.9515 17.1956 38.3403 16.3684 38.7746 15.5651C39.0377 15.0705 39.3462 14.6015 39.6961 14.1643C39.8593 13.9466 40.064 13.7635 40.2983 13.6258C40.3674 13.5895 40.4404 13.5614 40.516 13.5421C40.3491 14.1934 37.9293 23.806 37.9293 23.806C37.8484 24.0746 37.8615 24.3629 37.9664 24.623C38.0713 24.8831 38.2618 25.0994 38.5062 25.2359C38.8505 25.4251 39.2383 25.5205 39.6308 25.5125C40.067 25.5379 40.5017 25.4409 40.886 25.2323C41.0575 25.1259 41.2059 24.9861 41.3224 24.8211C41.4389 24.6561 41.5213 24.4693 41.5644 24.2718L42.2066 21.5648C42.6222 20.422 43.1294 19.3147 43.723 18.2539C44.2243 17.3488 44.8033 16.4893 45.4535 15.6851C45.9342 15.0774 46.5028 14.5451 47.1405 14.1061C47.5322 13.8182 47.9981 13.649 48.4828 13.6185C48.9435 13.6185 49.0632 13.7277 49.0669 13.7313C49.1115 13.7803 49.1461 13.8377 49.1685 13.9001C49.1909 13.9626 49.2008 14.0289 49.1975 14.0952C49.2019 14.4469 49.1555 14.7974 49.0596 15.1357L47.6992 20.4478C47.5687 21.008 47.4922 21.5794 47.4706 22.1542C47.4426 22.7147 47.5316 23.2748 47.7318 23.7988C47.9439 24.3381 48.3262 24.793 48.8202 25.094C49.4064 25.4224 50.0721 25.5811 50.7429 25.5525H50.8119C51.5237 25.5397 52.2315 25.4407 52.9197 25.2578C53.7805 25.0333 54.6185 24.7288 55.4229 24.3482C55.9425 24.1066 56.4488 23.837 56.9393 23.5405C57.1216 23.7445 57.318 23.9354 57.527 24.1117C58.1153 24.5979 58.7898 24.9682 59.5151 25.2032C60.35 25.4619 61.2209 25.5848 62.0945 25.567C62.9493 25.5638 63.8011 25.465 64.634 25.2723C65.5204 25.0688 66.3844 24.7775 67.2134 24.4028C67.656 24.2026 68.0986 23.9807 68.534 23.7406C68.6065 23.8279 68.6791 23.9116 68.7553 23.9916C69.2034 24.4602 69.7334 24.8425 70.3189 25.1195C70.9401 25.4006 71.6146 25.5434 72.2961 25.5379C73.181 25.5453 74.0579 25.3695 74.8719 25.0213C75.7069 24.6446 76.4733 24.1306 77.1393 23.5004C77.9208 22.7595 78.6358 21.9511 79.2761 21.0845C80.0017 20.1458 80.7272 19.0325 81.5072 17.7809C81.9825 17.0132 82.4251 16.3255 82.8205 15.7543C83.1446 15.2723 83.4946 14.8083 83.869 14.3644C84.0915 14.0933 84.3447 13.8491 84.6236 13.6367C84.6967 13.5818 84.7774 13.5377 84.863 13.5057C84.7397 13.986 82.2727 23.7842 82.2727 23.7842C82.1911 24.0528 82.2039 24.3413 82.3088 24.6015C82.4138 24.8618 82.6047 25.078 82.8495 25.2141C83.1939 25.4033 83.5816 25.4986 83.9742 25.4906C84.4104 25.5161 84.8451 25.419 85.2294 25.2105C85.4014 25.1047 85.5502 24.9651 85.6668 24.8C85.7834 24.6349 85.8654 24.4477 85.9078 24.2499L86.55 21.543C86.9656 20.4001 87.4727 19.2929 88.0664 18.232C88.5685 17.3275 89.1475 16.4681 89.7969 15.6633C90.2779 15.0545 90.8478 14.5222 91.4875 14.0843C91.8782 13.797 92.3427 13.6278 92.8262 13.5967C93.0277 13.5748 93.2312 13.6141 93.4103 13.7095C93.4551 13.7584 93.4897 13.8157 93.5122 13.8782C93.5346 13.9407 93.5443 14.007 93.5409 14.0733C93.5453 14.4286 93.4989 14.7828 93.403 15.1248L92.0716 20.5388C91.9438 21.0375 91.8505 21.5444 91.7922 22.056C91.7282 22.5791 91.7614 23.1095 91.8902 23.6205C92.0315 24.1586 92.3466 24.6345 92.7863 24.974C93.3323 25.3588 93.992 25.5473 94.6582 25.5088C95.3232 25.5131 95.9772 25.3385 96.552 25.0031C97.0623 24.7064 97.5207 24.3279 97.9088 23.8825C98.2274 23.5195 98.506 23.123 98.7396 22.7C98.8391 22.5385 98.9026 22.3573 98.9257 22.1689C98.9489 21.9805 98.9312 21.7894 98.8738 21.6085C98.7275 21.2403 98.4599 20.9334 98.1156 20.7389ZM71.556 14.5536C71.733 14.2704 71.962 14.0235 72.2308 13.8259C72.4141 13.6912 72.6348 13.6174 72.862 13.6149C72.9832 13.6057 73.1038 13.6391 73.2031 13.7095C73.2321 13.7422 73.3228 13.8769 73.3228 14.2771C73.3053 14.7246 73.1809 15.1613 72.96 15.5505C72.6616 16.1109 72.2961 16.6326 71.8716 17.1041C71.4612 17.5631 71.02 17.9935 70.5511 18.3921C70.5566 17.9494 70.5966 17.5078 70.6708 17.0714C70.7557 16.6018 70.877 16.1395 71.0336 15.6888C71.16 15.2866 71.3354 14.9017 71.556 14.5427V14.5536ZM60.462 13.9642C60.6952 13.748 61.0006 13.6273 61.3182 13.6258C61.4214 13.6217 61.5227 13.6538 61.6048 13.7168C61.6338 13.7495 61.7245 13.8841 61.7245 14.2844C61.7071 14.7319 61.5826 15.1686 61.3617 15.5578C61.0658 16.1197 60.7001 16.6417 60.2733 17.1114C59.8643 17.5704 59.4242 18.0008 58.9564 18.3994C58.9634 17.848 59.0229 17.2985 59.1342 16.7585C59.2494 16.1867 59.4296 15.63 59.6711 15.0994C59.8528 14.6665 60.1221 14.2763 60.462 13.9533V13.9642ZM22.9608 16.5329C23.2188 15.9772 23.5548 15.4614 23.9584 15.0011C24.3298 14.5739 24.7792 14.2219 25.2826 13.9642C25.7939 13.7141 26.3572 13.5894 26.926 13.6003C27.4767 13.6076 28.0246 13.6796 28.5586 13.815C28.6783 13.8441 28.8016 13.8805 28.9213 13.9242L28.5803 15.2595C28.0725 16.4268 27.4846 17.5574 26.8208 18.6432C26.2553 19.6054 25.5553 20.4815 24.742 21.2446C24.1507 21.7576 23.6174 22.0196 23.153 22.0196C22.9649 22.0298 22.7795 21.9716 22.6306 21.8559C22.4544 21.6951 22.3284 21.4866 22.2678 21.2555C22.1535 20.8559 22.0997 20.4414 22.1082 20.0258C22.1134 19.4506 22.1852 18.8779 22.3223 18.3193C22.4721 17.6995 22.686 17.0971 22.9608 16.522V16.5329Z" fill="black"/>
<path d="M103.387 21.7249C102.875 21.3197 102.235 21.1142 101.584 21.1463C100.933 21.1784 100.315 21.446 99.8461 21.8995C99.4315 22.4467 99.2233 23.1233 99.2584 23.8097C99.2432 24.0994 99.2858 24.3892 99.3836 24.6622C99.4814 24.9352 99.6324 25.1859 99.828 25.3997C100.05 25.6103 100.314 25.7726 100.601 25.8765C100.889 25.9804 101.195 26.0237 101.5 26.0036C101.85 26.0237 102.2 25.9659 102.525 25.8344C102.85 25.7029 103.142 25.5011 103.38 25.2432C103.816 24.6973 104.036 24.0097 104 23.3112C104.013 23.0187 103.965 22.7266 103.859 22.4536C103.754 22.1805 103.593 21.9324 103.387 21.7249Z" fill="black"/>
</g>
<defs>
<clipPath id="clip0_2103_5">
<rect width="104" height="26" fill="white"/>
</clipPath>
</defs>
</svg>
