<?xml version="1.0" encoding="utf-8"?>
<!-- Generator: Adobe Illustrator 25.4.0, SVG Export Plug-In . SVG Version: 6.00 Build 0)  -->
<svg version="1.1" id="Layer_1" xmlns="http://www.w3.org/2000/svg" xmlns:xlink="http://www.w3.org/1999/xlink" x="0px" y="0px"
	 viewBox="0 0 104 26" style="enable-background:new 0 0 104 26;" xml:space="preserve">
<style type="text/css">
	.st0{clip-path:url(#SVGID_00000147215067134388169600000016466344659689051559_);}
	.st1{fill:#FFFFFF;}
</style>
<g>
	<defs>
		<rect id="SVGID_1_" width="104" height="26"/>
	</defs>
	<clipPath id="SVGID_00000057830298338552109440000000049238119747099814_">
		<use xlink:href="#SVGID_1_"  style="overflow:visible;"/>
	</clipPath>
	<g style="clip-path:url(#SVGID_00000057830298338552109440000000049238119747099814_);">
		<path class="st1" d="M19.1,4.2c0-0.2,0-0.5,0-0.7c-0.1-0.2-0.2-0.4-0.4-0.6c-0.5-0.5-1.1-1-1.8-1.5c-0.7-0.5-1.4-0.8-2.2-1.1
			C13.8,0.1,12.9,0,12,0c-1.1,0-2.2,0.1-3.3,0.5C7.7,0.7,6.8,1.2,6,1.8C5.3,2.4,4.7,3.2,4.3,4S3.7,5.8,3.7,6.7
			c0,0.8,0.1,1.5,0.3,2.2c0.2,0.6,0.5,1.2,0.9,1.8c0.4,0.5,0.8,1,1.3,1.5c0.5,0.4,1,0.8,1.6,1.1c0.6,0.3,1.1,0.7,1.7,0.9
			c0.5,0.3,1.1,0.6,1.6,0.9c0.4,0.2,0.7,0.5,1.1,0.9c0.3,0.3,0.5,0.6,0.6,0.9c0.1,0.4,0.2,0.7,0.2,1.1c0,0.6-0.1,1.2-0.4,1.7
			c-0.2,0.5-0.6,0.9-1,1.2c-0.5,0.3-1,0.6-1.6,0.7C9.3,21.9,8.6,22,7.9,22c-0.7,0-1.4-0.1-2.1-0.3c-0.6-0.2-1.1-0.5-1.7-0.8
			c-0.5-0.3-0.9-0.7-1.3-1.1c-0.1-0.1-0.3-0.3-0.4-0.4c-0.2-0.1-0.4-0.1-0.5-0.1c-0.1,0-0.2,0-0.3,0c-0.3,0.1-0.7,0.3-0.9,0.6
			c-0.2,0.2-0.4,0.5-0.6,0.8C0,20.8,0,21,0,21.2c0,0.2,0.1,0.4,0.3,0.6c0.4,0.5,0.9,1,1.4,1.5c0.5,0.5,1.1,0.9,1.7,1.2
			c0.7,0.3,1.4,0.6,2.1,0.8c0.8,0.2,1.6,0.3,2.4,0.3c1.2,0,2.4-0.2,3.5-0.5c1-0.3,2-0.8,2.8-1.5c0.8-0.7,1.5-1.5,1.9-2.5
			s0.7-2,0.6-3c0-0.8-0.1-1.6-0.4-2.4c-0.3-0.7-0.7-1.4-1.2-2c-0.5-0.6-1.1-1.1-1.8-1.6c-0.7-0.5-1.4-0.9-2.2-1.3
			c-0.6-0.3-1.2-0.6-1.8-1C9.1,9.7,8.7,9.4,8.4,9C8.1,8.7,7.9,8.4,7.8,8C7.7,7.6,7.6,7.2,7.6,6.7c0-0.5,0.1-0.9,0.3-1.3
			C8.1,5,8.4,4.7,8.7,4.5C9.1,4.2,9.6,4,10.1,3.9c0.6-0.1,1.2-0.2,1.9-0.2c0.6,0,1.2,0.1,1.8,0.2c0.5,0.1,0.9,0.3,1.4,0.6
			c0.4,0.3,0.8,0.6,1.2,0.9l0,0l0,0c0.2,0.2,0.5,0.3,0.8,0.3c0.1,0,0.2,0,0.3,0c0.4-0.1,0.7-0.3,0.9-0.5C18.8,4.9,19,4.5,19.1,4.2z"
			/>
		<path class="st1" d="M98.1,20.7c-0.2-0.2-0.5-0.3-0.8-0.3c-0.1,0-0.2,0-0.3,0c-0.3,0.1-0.6,0.3-0.8,0.6c-0.2,0.2-0.3,0.4-0.5,0.6
			c-0.1,0.1-0.1,0.1-0.2,0.2c0,0,0-0.1,0-0.1l1.5-5.7c0.3-1,0.4-2,0.3-3.1c-0.1-0.8-0.5-1.6-1.2-2.1c-0.7-0.5-1.6-0.8-2.4-0.7
			c-0.6,0-1.3,0.1-1.9,0.3c-0.6,0.2-1.2,0.6-1.8,1c-0.5,0.4-1,0.9-1.5,1.3c0-0.4-0.1-0.8-0.3-1.1c-0.2-0.5-0.6-0.8-1-1.1
			c-0.5-0.3-1.1-0.4-1.7-0.4h0h-0.1c-0.5,0-1,0.1-1.4,0.2c-0.5,0.2-1,0.5-1.5,0.8c-0.6,0.5-1.1,1-1.5,1.5c-0.6,0.8-1.2,1.6-1.8,2.5
			c-0.7,1.1-1.3,2.1-2,3c-0.5,0.8-1.1,1.5-1.7,2.2c-0.5,0.5-1,1-1.5,1.3c-0.4,0.3-0.9,0.4-1.3,0.4c-0.3,0-0.6-0.1-0.8-0.3
			c0,0-0.1-0.1-0.1-0.1c0.2-0.2,0.5-0.4,0.7-0.6c0.8-0.7,1.6-1.4,2.3-2.3c0.7-0.8,1.2-1.6,1.7-2.5c0.4-0.8,0.7-1.7,0.7-2.6
			c0-0.7-0.2-1.3-0.5-1.9c-0.3-0.6-0.8-1-1.4-1.3c-0.6-0.3-1.2-0.5-1.9-0.5h-0.1h-0.1c-1,0-2.1,0.3-2.9,0.8c-0.8,0.5-1.5,1.2-2,2.1
			c-0.5,0.8-0.9,1.7-1.2,2.7c-0.2,0.9-0.4,1.8-0.4,2.8c0,0.7,0.1,1.4,0.2,2.1c0,0.1,0.1,0.2,0.1,0.3c-0.3,0.1-0.5,0.3-0.8,0.4
			c-0.6,0.3-1.3,0.5-1.9,0.7c-0.6,0.2-1.2,0.2-1.8,0.3c-0.5,0-1.1-0.1-1.5-0.3c-0.2-0.1-0.4-0.2-0.6-0.3c0.2-0.1,0.3-0.3,0.5-0.4
			c0.8-0.7,1.6-1.4,2.3-2.3c0.7-0.8,1.2-1.6,1.7-2.5c0.4-0.8,0.7-1.7,0.7-2.6c0-0.7-0.2-1.3-0.5-1.9c-0.3-0.6-0.8-1-1.4-1.3
			c-0.6-0.3-1.3-0.5-2-0.5c-0.8,0-1.7,0.2-2.4,0.5c-0.7,0.3-1.3,0.8-1.9,1.4c-0.5,0.6-0.9,1.2-1.3,2c-0.3,0.7-0.6,1.5-0.7,2.2
			c-0.2,0.7-0.2,1.5-0.2,2.2c0,0.7,0.1,1.4,0.2,2.1c0,0.1,0,0.1,0.1,0.2c-0.6,0.3-1.2,0.6-1.8,0.9c-0.7,0.3-1.5,0.5-2.3,0.5
			c0,0-0.1,0-0.1,0c0-0.5,0.1-0.9,0.2-1.3l1.2-4.8c0.3-1,0.4-2,0.3-3.1c-0.1-0.8-0.5-1.6-1.2-2.1c-0.7-0.5-1.6-0.8-2.4-0.7
			c-0.6,0-1.3,0.1-1.9,0.3c-0.6,0.2-1.2,0.6-1.8,1c-0.5,0.4-1,0.9-1.5,1.3c0-0.4-0.1-0.8-0.3-1.1c-0.2-0.5-0.6-0.8-1-1.1
			c-0.5-0.3-1.1-0.4-1.7-0.4c-0.5,0-1.1,0.1-1.6,0.3c-0.6,0.2-1.2,0.6-1.7,1.1c-0.7,0.7-1.2,1.4-1.7,2.2c-0.7,1.2-1.3,2.4-1.8,3.7
			c-0.3,0.8-0.7,1.5-1.1,2.3c-0.3,0.5-0.6,1-1,1.5c-0.2,0.3-0.5,0.6-0.8,0.8c-0.2,0.1-0.4,0.2-0.6,0.2h0c0,0-0.1,0-0.1,0
			c0-0.5,0.1-0.9,0.2-1.3l2.2-8.8c0.1-0.2,0.1-0.5,0.1-0.8c-0.1-0.3-0.2-0.5-0.3-0.7c-0.3-0.3-0.8-0.4-1.5-0.4
			c-0.4,0-0.8,0.1-1.1,0.3c-0.1,0.1-0.2,0.1-0.3,0.2c-0.2-0.1-0.4-0.1-0.6-0.2c-0.8-0.3-1.6-0.4-2.4-0.4c-1.1,0-2.1,0.2-3.1,0.7
			c-0.9,0.4-1.8,1-2.5,1.7c-0.7,0.7-1.3,1.5-1.7,2.4c-0.9,1.7-1.4,3.6-1.4,5.5c0,0.9,0.1,1.8,0.5,2.7c0.3,0.8,0.8,1.4,1.5,1.9
			c0.7,0.4,1.4,0.7,2.2,0.7c1.1,0,2.2-0.4,3-1.1c0.6-0.4,1.1-0.9,1.6-1.4c0,0.3,0.1,0.5,0.2,0.8c0.2,0.5,0.6,1,1.1,1.3
			c0.6,0.3,1.3,0.5,1.9,0.5h0.1c0.6,0,1.1-0.1,1.7-0.3c0.7-0.2,1.3-0.6,1.8-1.1c0.7-0.7,1.3-1.4,1.8-2.3c0.7-1.2,1.4-2.5,1.9-3.9
			c0.3-0.8,0.7-1.7,1.2-2.5c0.3-0.5,0.6-1,0.9-1.4c0.2-0.2,0.4-0.4,0.6-0.5c0.1,0,0.1-0.1,0.2-0.1c-0.2,0.7-2.6,10.3-2.6,10.3
			c-0.1,0.3-0.1,0.6,0,0.8c0.1,0.3,0.3,0.5,0.5,0.6c0.3,0.2,0.7,0.3,1.1,0.3c0.4,0,0.9-0.1,1.3-0.3c0.2-0.1,0.3-0.2,0.4-0.4
			c0.1-0.2,0.2-0.4,0.2-0.5l0.6-2.7c0.4-1.1,0.9-2.3,1.5-3.3c0.5-0.9,1.1-1.8,1.7-2.6c0.5-0.6,1-1.1,1.7-1.6
			c0.4-0.3,0.9-0.5,1.3-0.5c0.5,0,0.6,0.1,0.6,0.1c0,0,0.1,0.1,0.1,0.2c0,0.1,0,0.1,0,0.2c0,0.4,0,0.7-0.1,1l-1.4,5.3
			c-0.1,0.6-0.2,1.1-0.2,1.7c0,0.6,0.1,1.1,0.3,1.6c0.2,0.5,0.6,1,1.1,1.3c0.6,0.3,1.3,0.5,1.9,0.5h0.1c0.7,0,1.4-0.1,2.1-0.3
			c0.9-0.2,1.7-0.5,2.5-0.9c0.5-0.2,1-0.5,1.5-0.8c0.2,0.2,0.4,0.4,0.6,0.6c0.6,0.5,1.3,0.9,2,1.1c0.8,0.3,1.7,0.4,2.6,0.4
			c0.9,0,1.7-0.1,2.5-0.3c0.9-0.2,1.8-0.5,2.6-0.9c0.4-0.2,0.9-0.4,1.3-0.7c0.1,0.1,0.1,0.2,0.2,0.3c0.4,0.5,1,0.9,1.6,1.1
			c0.6,0.3,1.3,0.4,2,0.4c0.9,0,1.8-0.2,2.6-0.5c0.8-0.4,1.6-0.9,2.3-1.5c0.8-0.7,1.5-1.5,2.1-2.4c0.7-0.9,1.5-2.1,2.2-3.3
			c0.5-0.8,0.9-1.5,1.3-2c0.3-0.5,0.7-0.9,1-1.4c0.2-0.3,0.5-0.5,0.8-0.7c0.1-0.1,0.2-0.1,0.2-0.1c-0.1,0.5-2.6,10.3-2.6,10.3
			c-0.1,0.3-0.1,0.6,0,0.8c0.1,0.3,0.3,0.5,0.5,0.6c0.3,0.2,0.7,0.3,1.1,0.3c0.4,0,0.9-0.1,1.3-0.3c0.2-0.1,0.3-0.2,0.4-0.4
			s0.2-0.4,0.2-0.6l0.6-2.7c0.4-1.1,0.9-2.3,1.5-3.3c0.5-0.9,1.1-1.8,1.7-2.6c0.5-0.6,1.1-1.1,1.7-1.6c0.4-0.3,0.9-0.5,1.3-0.5
			c0.2,0,0.4,0,0.6,0.1c0,0,0.1,0.1,0.1,0.2c0,0.1,0,0.1,0,0.2c0,0.4,0,0.7-0.1,1.1l-1.3,5.4c-0.1,0.5-0.2,1-0.3,1.5
			c-0.1,0.5,0,1.1,0.1,1.6c0.1,0.5,0.5,1,0.9,1.4c0.5,0.4,1.2,0.6,1.9,0.5c0.7,0,1.3-0.2,1.9-0.5c0.5-0.3,1-0.7,1.4-1.1
			c0.3-0.4,0.6-0.8,0.8-1.2c0.1-0.2,0.2-0.3,0.2-0.5c0-0.2,0-0.4-0.1-0.6C98.7,21.2,98.5,20.9,98.1,20.7z M71.6,14.6
			c0.2-0.3,0.4-0.5,0.7-0.7c0.2-0.1,0.4-0.2,0.6-0.2c0.1,0,0.2,0,0.3,0.1c0,0,0.1,0.2,0.1,0.6c0,0.4-0.1,0.9-0.4,1.3
			c-0.3,0.6-0.7,1.1-1.1,1.6c-0.4,0.5-0.9,0.9-1.3,1.3c0-0.4,0-0.9,0.1-1.3c0.1-0.5,0.2-0.9,0.4-1.4C71.2,15.3,71.3,14.9,71.6,14.6
			L71.6,14.6z M60.5,14c0.2-0.2,0.5-0.3,0.9-0.3c0.1,0,0.2,0,0.3,0.1c0,0,0.1,0.2,0.1,0.6c0,0.4-0.1,0.9-0.4,1.3
			c-0.3,0.6-0.7,1.1-1.1,1.6c-0.4,0.5-0.8,0.9-1.3,1.3c0-0.6,0.1-1.1,0.2-1.6c0.1-0.6,0.3-1.1,0.5-1.7C59.9,14.7,60.1,14.3,60.5,14
			L60.5,14z M23,16.5c0.3-0.6,0.6-1.1,1-1.5c0.4-0.4,0.8-0.8,1.3-1c0.5-0.3,1.1-0.4,1.6-0.4c0.6,0,1.1,0.1,1.6,0.2
			c0.1,0,0.2,0.1,0.4,0.1l-0.3,1.3c-0.5,1.2-1.1,2.3-1.8,3.4c-0.6,1-1.3,1.8-2.1,2.6c-0.6,0.5-1.1,0.8-1.6,0.8c-0.2,0-0.4,0-0.5-0.2
			c-0.2-0.2-0.3-0.4-0.4-0.6c-0.1-0.4-0.2-0.8-0.2-1.2c0-0.6,0.1-1.1,0.2-1.7C22.5,17.7,22.7,17.1,23,16.5L23,16.5z"/>
		<path class="st1" d="M103.4,21.7c-0.5-0.4-1.2-0.6-1.8-0.6c-0.7,0-1.3,0.3-1.7,0.8c-0.4,0.5-0.6,1.2-0.6,1.9c0,0.3,0,0.6,0.1,0.9
			c0.1,0.3,0.2,0.5,0.4,0.7c0.2,0.2,0.5,0.4,0.8,0.5c0.3,0.1,0.6,0.1,0.9,0.1c0.3,0,0.7,0,1-0.2c0.3-0.1,0.6-0.3,0.9-0.6
			c0.4-0.5,0.7-1.2,0.6-1.9c0-0.3,0-0.6-0.1-0.9C103.8,22.2,103.6,21.9,103.4,21.7z"/>
	</g>
</g>
</svg>
